<svg xmlns="http://www.w3.org/2000/svg" viewBox="0 0 512 512" role="img" aria-label="AmarasApps — Prism (Aurora, liquid glass)">
  <defs>
    <linearGradient id="pgBg" x1="0" y1="0" x2="1" y2="1"><stop offset="0" stop-color="#1a1322"/><stop offset="1" stop-color="#241a2e"/></linearGradient>
    <linearGradient id="pgLeft" x1="0" y1="1" x2="1" y2="0"><stop offset="0" stop-color="#7C3AED" stop-opacity=".9"/><stop offset="1" stop-color="#A78BFA" stop-opacity=".85"/></linearGradient>
    <linearGradient id="pgRight" x1="1" y1="0" x2="0" y2="1"><stop offset="0" stop-color="#FB7185" stop-opacity=".9"/><stop offset="1" stop-color="#EC4899" stop-opacity=".85"/></linearGradient>
    <linearGradient id="pgBar" x1="0" y1="0" x2="1" y2="0"><stop offset="0" stop-color="#C4B5FD"/><stop offset=".5" stop-color="#F0ABFC"/><stop offset="1" stop-color="#FDA4AF"/></linearGradient>
    <linearGradient id="pgSheen" x1="0" y1="0" x2="0" y2="1"><stop offset="0" stop-color="#fff" stop-opacity=".55"/><stop offset=".42" stop-color="#fff" stop-opacity="0"/></linearGradient>
  </defs>
  <rect x="16" y="16" width="480" height="480" rx="112" fill="url(#pgBg)"/>
  <rect x="24" y="24" width="464" height="220" rx="104" fill="url(#pgSheen)"/>
  <rect x="16" y="16" width="480" height="480" rx="112" fill="none" stroke="#fff" stroke-opacity=".28" stroke-width="2"/>
  <g stroke-linejoin="round">
    <path d="M256 150 L168 356 L214 356 L256 256 Z" fill="url(#pgLeft)"/>
    <path d="M256 150 L344 356 L298 356 L256 256 Z" fill="url(#pgRight)"/>
    <path d="M222 300 L290 300 L276 336 L236 336 Z" fill="url(#pgBar)"/>
    <path d="M256 150 L214 356 L215 356 Z" fill="#fff" opacity=".5"/>
  </g>
</svg>
